<svg id="Layer_1" enable-background="new 0 0 511.682 511.682" height="512" viewBox="0 0 511.682 511.682" width="512" xmlns="http://www.w3.org/2000/svg"><g><path d="m426.73 251.904v104.5c0 85.757-58.369 155.277-144.126 155.277h-101.171c-37.685 0-68.234-31.593-68.234-69.277" fill="#00969c"/><path d="m426.73 356.405v-104.5l-156.766 95.25v164.527h12.639c85.758 0 144.127-69.52 144.127-155.277z" fill="#00767a"/><path d="m410.775 271.87v21.582c0 82.256-66.682 148.938-148.938 148.938h-191.932c-8.017 0-14.516-6.499-14.516-14.516v-26.942c0-59.359 48.12-107.479 107.479-107.479h25.228" fill="#00c7ce"/><path d="m269.964 442.389c78.476-4.221 140.81-69.186 140.81-148.714v-21.582l-140.81 13.647z" fill="#00969c"/><path d="m304.406 147.463c-63.579 0-116.31 51.541-116.31 115.119v30.869h167.4c45.184 0 81.812-36.629 81.812-81.812v-79.936" fill="#00e7f0"/><path d="m269.964 152.671v140.781h85.532c45.184 0 81.812-36.629 81.812-81.813v-79.936l-132.903 15.76c-11.956 0-23.529 1.824-34.441 5.208z" fill="#00c7ce"/><path d="m448.257 0h-8.92c-74.52 0-134.931 60.411-134.931 134.931v12.532h95.39c31.202 0 56.497-25.295 56.497-56.497v-82.93c0-4.438-3.598-8.036-8.036-8.036z" fill="#9bfcff"/></g></svg>