<?xml version="1.0" encoding="UTF-8"?>
<svg width="23px" height="24px" viewBox="0 0 23 24" version="1.1" xmlns="http://www.w3.org/2000/svg" xmlns:xlink="http://www.w3.org/1999/xlink">
    <!-- Generator: Sketch 51.3 (57544) - http://www.bohemiancoding.com/sketch -->
    <title>Group 8</title>
    <desc>Created with Sketch.</desc>
    <defs></defs>
    <g id="Assets" stroke="none" stroke-width="1" fill="none" fill-rule="evenodd">
        <g id="ember-coin-24x24-copy" fill-rule="nonzero">
            <g id="Group-8">
                <g id="skills-comet" fill="#FFCC31">
                    <path d="M7.9164,23.4008 C8.4788,23.9628 9.39,23.9628 9.9524,23.4008 C10.516,22.8384 10.516,21.9272 9.9524,21.3648 C9.3904,20.8028 8.4788,20.8028 7.9164,21.3648 C7.3544,21.9272 7.3544,22.8384 7.9164,23.4008" id="Fill-265"></path>
                    <path d="M19.196,11.9176 C17.06,14.0536 13.6,14.0536 11.468,11.9176 C9.3308,9.7856 9.3308,6.3256 11.468,4.1896 C13.6,2.0576 17.06,2.0576 19.196,4.1896 C21.328,6.3256 21.328,9.7856 19.196,11.9176 Z M20.704,2.4696 C17.892,-0.3424 13.336,-0.3424 10.524,2.4696 L9.0348,3.9576 L3.4548,9.5416 L0.7028,12.2896 C0.1432,12.8536 0.1432,13.7616 0.7028,14.3256 C1.2668,14.8896 2.1792,14.8896 2.7392,14.3256 L5.4912,11.5776 L6.0868,10.9776 C6.3668,10.6976 6.7348,10.5576 7.1028,10.5576 C7.4708,10.5576 7.8392,10.6976 8.1232,10.9776 C8.6828,11.5416 8.6828,12.4536 8.1232,13.0136 L7.5272,13.6136 L3.3548,17.7816 L1.0988,20.0376 C0.5348,20.6016 0.5348,21.5136 1.0988,22.0736 C1.6592,22.6376 2.5708,22.6376 3.1348,22.0736 L5.3912,19.8176 L9.5628,15.6496 L10.16,15.0496 C10.44,14.7696 10.808,14.6296 11.176,14.6296 C11.544,14.6296 11.912,14.7696 12.196,15.0496 C12.756,15.6136 12.756,16.5256 12.196,17.0856 L11.6,17.6856 L11.112,18.1696 C10.548,18.7336 10.548,19.6416 11.112,20.2056 C11.672,20.7696 12.584,20.7696 13.148,20.2056 L13.632,19.7176 L19.1,14.2496 L20.704,12.6496 C23.516,9.8376 23.516,5.2816 20.704,2.4696 Z" id="Fill-267"></path>
                    <path d="M18.2,10.9216 C17.028,12.0976 15.32,12.402 13.864,11.8376 C13.604,11.7376 13.704,11.3536 13.984,11.3696 C15.2,11.4456 16.44,11.0216 17.368,10.094 C18.296,9.1656 18.724,7.9216 18.644,6.702 C18.624,6.4216 19.012,6.3216 19.112,6.586 C19.68,8.0376 19.372,9.7496 18.2,10.9216" id="Fill-269"></path>
                </g>
                <rect id="Rectangle-6" x="0" y="0" width="24" height="24"></rect>
            </g>
        </g>
    </g>
</svg>