<?xml version="1.0" encoding="iso-8859-1"?>
<!-- Generator: Adobe Illustrator 19.0.0, SVG Export Plug-In . SVG Version: 6.00 Build 0)  -->
<svg version="1.1" id="Capa_1" xmlns="http://www.w3.org/2000/svg" xmlns:xlink="http://www.w3.org/1999/xlink" x="0px" y="0px"
	 viewBox="0 0 511.999 511.999" style="enable-background:new 0 0 511.999 511.999;" xml:space="preserve">
<path style="fill:#25C2CE;" d="M380.691,504.396H131.308c-28.979,0-52.471-23.492-52.471-52.471V60.075
	c0-28.979,23.492-52.471,52.471-52.471h249.384c28.979,0,52.471,23.492,52.471,52.471v391.848
	C433.163,480.904,409.67,504.396,380.691,504.396z"/>
<path style="fill:#19A2A5;" d="M102.157,451.925V60.075c0-28.979,23.492-52.471,52.471-52.471h-23.321
	c-28.979,0-52.471,23.492-52.471,52.471v391.848c0,28.979,23.492,52.471,52.471,52.471h23.321
	C125.649,504.396,102.157,480.904,102.157,451.925z"/>
<path style="fill:#1F3B63;" d="M370.608,234.77H141.391c-11.871,0-21.495-9.624-21.495-21.495V73.779
	c0-11.871,9.624-21.495,21.495-21.495h229.219c11.871,0,21.495,9.624,21.495,21.495v139.496
	C392.103,225.146,382.48,234.77,370.608,234.77z"/>
<polygon style="fill:#ED3B72;" points="232.428,316.128 201.254,316.128 201.254,284.954 151.07,284.954 151.07,316.128 
	119.896,316.128 119.896,366.312 151.07,366.312 151.07,397.486 201.254,397.486 201.254,366.312 232.428,366.312 "/>
<circle style="fill:#F4E662;" cx="320.633" cy="307.007" r="22.05"/>
<circle style="fill:#B6C5D8;" cx="360.174" cy="375.433" r="22.05"/>
<path d="M380.691,0H131.308C98.129,0,71.232,26.897,71.232,60.075v290.417c0,4.199,3.405,7.604,7.604,7.604l0,0
	c4.199,0,7.604-3.405,7.604-7.604V60.075c0-24.78,20.088-44.867,44.867-44.867h249.384c24.78,0,44.867,20.088,44.867,44.867v391.848
	c0,24.78-20.088,44.867-44.867,44.867H131.308c-24.78,0-44.867-20.088-44.867-44.867v-65.946c0-4.199-3.405-7.604-7.604-7.604l0,0
	c-4.199,0-7.604,3.405-7.604,7.604v65.946c0,33.179,26.897,60.075,60.075,60.075h249.384c33.179,0,60.075-26.897,60.075-60.075
	V60.075C440.767,26.897,413.87,0,380.691,0z"/>
<path d="M141.391,59.888h163.605c4.199,0,7.604-3.405,7.604-7.604l0,0c0-4.199-3.405-7.604-7.604-7.604H141.391
	c-16.071,0-29.099,13.028-29.099,29.099v139.495c0,16.071,13.028,29.099,29.099,29.099h229.218
	c16.071,0,29.099-13.028,29.099-29.099V73.779c0-16.071-13.028-29.099-29.099-29.099h-30.127c-4.199,0-7.604,3.405-7.604,7.604l0,0
	c0,4.199,3.405,7.604,7.604,7.604h30.127c7.672,0,13.891,6.219,13.891,13.891v139.496c0,7.672-6.219,13.891-13.891,13.891H141.391
	c-7.672,0-13.891-6.219-13.891-13.891V73.779C127.5,66.107,133.719,59.888,141.391,59.888z"/>
<path d="M112.292,366.312c0,4.199,3.405,7.604,7.604,7.604h23.571v23.571c0,4.199,3.405,7.604,7.604,7.604h50.184
	c4.199,0,7.604-3.405,7.604-7.604v-23.571h23.571c4.199,0,7.604-3.405,7.604-7.604v-50.184c0-4.199-3.405-7.604-7.604-7.604h-23.571
	v-23.571c0-4.199-3.405-7.604-7.604-7.604h-50.184c-4.199,0-7.604,3.405-7.604,7.604v23.571h-23.571
	c-4.199,0-7.604,3.405-7.604,7.604L112.292,366.312L112.292,366.312z M127.5,323.732h23.571c4.199,0,7.604-3.405,7.604-7.604
	v-23.571h34.976v23.571c0,4.199,3.405,7.604,7.604,7.604h23.571v34.976h-23.571c-4.199,0-7.604,3.405-7.604,7.604v23.571h-34.976
	v-23.571c0-4.199-3.405-7.604-7.604-7.604H127.5L127.5,323.732L127.5,323.732z"/>
<path d="M350.285,307.004c0-16.352-13.303-29.654-29.654-29.654c-16.352,0-29.654,13.303-29.654,29.654
	c0,16.352,13.303,29.654,29.654,29.654C336.982,336.659,350.285,323.356,350.285,307.004z M320.63,321.451
	c-7.966,0-14.447-6.481-14.447-14.447c0-7.966,6.481-14.447,14.447-14.447s14.447,6.481,14.447,14.447
	C335.077,314.97,328.596,321.451,320.63,321.451z"/>
<path d="M360.169,405.09c16.352,0,29.654-13.303,29.654-29.654c0-16.352-13.303-29.654-29.654-29.654
	c-16.352,0-29.654,13.303-29.654,29.654C330.514,391.787,343.817,405.09,360.169,405.09z M360.169,360.989
	c7.966,0,14.447,6.481,14.447,14.447c0,7.966-6.481,14.447-14.447,14.447c-7.966,0-14.447-6.481-14.447-14.447
	C345.722,367.47,352.203,360.989,360.169,360.989z"/>
<g>
</g>
<g>
</g>
<g>
</g>
<g>
</g>
<g>
</g>
<g>
</g>
<g>
</g>
<g>
</g>
<g>
</g>
<g>
</g>
<g>
</g>
<g>
</g>
<g>
</g>
<g>
</g>
<g>
</g>
</svg>
